<?xml version="1.0"?>
<svg xmlns="http://www.w3.org/2000/svg" id="Layer_1" data-name="Layer 1" viewBox="0 0 512 512" width="512" height="512"><title>Candy</title><g id="_Group_2" data-name=" Group 2"><path d="M385.5,256v29a40,40,0,0,1-40,40h-179a40,40,0,0,1-40-40V227a40,40,0,0,1,40-40h179a40,40,0,0,1,40,40Z" style="fill:#00acea"/><path d="M109.74,225.09a36.884,36.884,0,0,1,0,61.82L33.5,336.5v-161Z" style="fill:#fedb41"/><path d="M385.5,256a36.888,36.888,0,0,1,16.76-30.91L478.5,175.5v161l-76.24-49.59A36.9,36.9,0,0,1,385.5,256Z" style="fill:#fedb41"/><path d="M482.065,168.468a7.771,7.771,0,0,0-8.052.326l-76.191,49.6a44.524,44.524,0,0,0-4.628,3.5A48.034,48.034,0,0,0,345.5,179h-179a48.066,48.066,0,0,0-47.724,42.882,45.459,45.459,0,0,0-4.674-3.5l-76.24-49.59a8.457,8.457,0,0,0-8.427-.326A8.241,8.241,0,0,0,25,175.5v161a8.241,8.241,0,0,0,4.435,7.032,8.484,8.484,0,0,0,3.94.968,8.207,8.207,0,0,0,4.425-1.294l76.284-49.6a45.108,45.108,0,0,0,4.675-3.5A48.08,48.08,0,0,0,166.5,333h179a48.066,48.066,0,0,0,47.724-42.882,45.459,45.459,0,0,0,4.674,3.5l76.24,49.59A7.994,7.994,0,0,0,478.5,344.5a7.066,7.066,0,0,0,3.565-.968A7.777,7.777,0,0,0,486,336.5v-161A7.777,7.777,0,0,0,482.065,168.468ZM105.128,280.2,41,321.753V190.247l64.123,41.545a29.5,29.5,0,0,1,7.9,7.449l-36.2-11.374a7.993,7.993,0,1,0-4.742,15.266L111.517,255.5,72.1,267.867a8,8,0,1,0,4.793,15.266L113.857,271.5A29.523,29.523,0,0,1,105.128,280.2ZM377,285a32,32,0,0,1-32,32H166a32,32,0,0,1-32-32V227a32,32,0,0,1,32-32H345a32,32,0,0,1,32,32Zm93,36.753-63.623-41.545a28.482,28.482,0,0,1-7.654-7.45l36.32,11.375a8.2,8.2,0,0,0,2.428.369,8,8,0,0,0,2.416-15.635L400.472,256.5l39.421-12.367a8,8,0,1,0-4.788-15.266L398.017,240.5a28.284,28.284,0,0,1,8.354-8.706L470,190.247Z" style="fill:#083863"/></g></svg>
